<svg width="27" height="45" viewBox="0 0 27 45" fill="none" xmlns="http://www.w3.org/2000/svg">
<path d="M10.1998 44.34C9.07982 44.34 7.87982 44.22 6.59982 43.98C5.35982 43.74 4.17982 43.42 3.05982 43.02C1.97982 42.58 1.11982 42.08 0.479824 41.52C0.279824 41.32 0.139824 41.12 0.0598242 40.92C0.0198242 40.72 0.0398242 40.42 0.119824 40.02L1.79982 30.6C1.91982 29.88 2.23982 29.52 2.75982 29.52C3.23982 29.52 3.47982 29.92 3.47982 30.72L3.53982 33.06C3.61982 36.42 4.19982 38.84 5.27982 40.32C6.35982 41.8 8.11982 42.54 10.5598 42.54C12.7998 42.54 14.6598 41.74 16.1398 40.14C17.6198 38.5 18.3598 36.32 18.3598 33.6C18.3598 31.84 17.8798 30 16.9198 28.08C15.9598 26.16 14.6198 24.24 12.8998 22.32C10.8598 20.04 9.33982 17.96 8.33982 16.08C7.37982 14.2 6.89982 12.22 6.89982 10.14C6.89982 8.50005 7.29982 6.92005 8.09982 5.40005C8.89982 3.84005 10.0998 2.56005 11.6998 1.56005C13.3398 0.520047 15.4198 4.76837e-05 17.9398 4.76837e-05C21.4198 4.76837e-05 24.0798 0.780047 25.9198 2.34005C26.4798 2.78005 26.6798 3.44005 26.5198 4.32005L24.8398 13.08C24.7198 13.68 24.4398 13.98 23.9998 13.98C23.5598 13.98 23.2998 13.64 23.2198 12.96L23.1598 11.7C22.9998 8.46005 22.5398 6.00005 21.7798 4.32005C21.0598 2.60005 19.5998 1.74005 17.3998 1.74005C15.7998 1.74005 14.5198 2.10005 13.5598 2.82005C12.5998 3.54005 11.8998 4.44005 11.4598 5.52005C11.0198 6.56005 10.7998 7.60005 10.7998 8.64005C10.7998 9.80005 10.9598 10.92 11.2798 12C11.5998 13.04 12.1398 14.16 12.8998 15.36C13.6998 16.52 14.7798 17.94 16.1398 19.62C18.0598 21.9 19.5598 24.08 20.6398 26.16C21.7198 28.24 22.2598 30.26 22.2598 32.22C22.2598 34.58 21.7198 36.68 20.6398 38.52C19.5998 40.32 18.1798 41.74 16.3798 42.78C14.5798 43.82 12.5198 44.34 10.1998 44.34Z" fill="white"/>
</svg>
