<svg width="232" height="60" viewBox="0 0 232 60" fill="none" xmlns="http://www.w3.org/2000/svg">
<path d="M10.38 47.0691C9.26 47.0691 8.06 46.9491 6.78 46.7091C5.54 46.4691 4.36 46.1491 3.24 45.7491C2.16 45.3091 1.3 44.8091 0.66 44.2491C0.46 44.0491 0.32 43.8491 0.24 43.6491C0.2 43.4491 0.22 43.1491 0.3 42.7491L1.98 33.3291C2.1 32.6091 2.42 32.2491 2.94 32.2491C3.42 32.2491 3.66 32.6491 3.66 33.4491L3.72 35.7891C3.8 39.1491 4.38 41.5691 5.46 43.0491C6.54 44.5291 8.3 45.2691 10.74 45.2691C12.98 45.2691 14.84 44.4691 16.32 42.8691C17.8 41.2291 18.54 39.0491 18.54 36.3291C18.54 34.5691 18.06 32.7291 17.1 30.8091C16.14 28.8891 14.8 26.9691 13.08 25.0491C11.04 22.7691 9.52 20.6891 8.52 18.8091C7.56 16.9291 7.08 14.9491 7.08 12.869C7.08 11.229 7.48 9.64905 8.28 8.12905C9.08 6.56905 10.28 5.28905 11.88 4.28905C13.52 3.24905 15.6 2.72905 18.12 2.72905C21.6 2.72905 24.26 3.50905 26.1 5.06905C26.66 5.50905 26.86 6.16905 26.7 7.04905L25.02 15.8091C24.9 16.4091 24.62 16.7091 24.18 16.7091C23.74 16.7091 23.48 16.3691 23.4 15.6891L23.34 14.4291C23.18 11.189 22.72 8.72905 21.96 7.04905C21.24 5.32905 19.78 4.46905 17.58 4.46905C15.98 4.46905 14.7 4.82905 13.74 5.54905C12.78 6.26905 12.08 7.16905 11.64 8.24905C11.2 9.28905 10.98 10.3291 10.98 11.3691C10.98 12.5291 11.14 13.6491 11.46 14.7291C11.78 15.7691 12.32 16.8891 13.08 18.0891C13.88 19.2491 14.96 20.6691 16.32 22.3491C18.24 24.6291 19.74 26.8091 20.82 28.8891C21.9 30.9691 22.44 32.9891 22.44 34.9491C22.44 37.3091 21.9 39.4091 20.82 41.2491C19.78 43.0491 18.36 44.4691 16.56 45.5091C14.76 46.5491 12.7 47.0691 10.38 47.0691ZM43.9497 47.0691C42.5097 47.0691 41.4297 46.4691 40.7097 45.2691C39.9897 44.0691 39.9497 42.2091 40.5897 39.6891L45.2097 22.2891C45.6497 20.7291 45.7097 19.6491 45.3897 19.0491C45.1097 18.4491 44.6897 18.1491 44.1297 18.1491C43.2497 18.1491 42.2497 18.7091 41.1297 19.8291C40.0497 20.9091 38.9097 22.4091 37.7097 24.3291C36.5497 26.2091 35.4097 28.3491 34.2897 30.7491C33.2097 33.1091 32.2097 35.6091 31.2897 38.2491C30.3697 40.8491 29.6297 43.3891 29.0697 45.8691C28.9497 46.3091 28.6697 46.5291 28.2297 46.5291H25.7097C25.1497 46.5291 24.9297 46.2691 25.0497 45.7491L33.8097 8.12905C34.0097 7.40905 34.0097 6.90905 33.8097 6.62905C33.6497 6.34905 33.2897 6.18905 32.7297 6.14905L30.9297 5.96905C30.3297 5.92905 30.0697 5.66905 30.1497 5.18905C30.2297 4.82905 30.5097 4.60905 30.9897 4.52905C32.4297 4.28905 33.7097 4.00905 34.8297 3.68905C35.9497 3.32905 36.8497 2.86905 37.5297 2.30905C37.8497 2.06905 38.1497 1.94905 38.4297 1.94905C38.9097 1.94905 39.0897 2.24905 38.9697 2.84905L33.0897 28.3491C33.0497 28.6291 33.1097 28.7891 33.2697 28.8291C33.4297 28.8691 33.5697 28.7691 33.6897 28.5291C35.2897 25.2491 36.8097 22.6691 38.2497 20.7891C39.6897 18.9091 41.0297 17.5691 42.2697 16.7691C43.5497 15.9691 44.7097 15.5691 45.7497 15.5691C47.2297 15.5691 48.3097 16.1691 48.9897 17.3691C49.6697 18.5691 49.6697 20.4091 48.9897 22.8891L44.4297 40.2891C44.1497 41.4091 44.1297 42.2491 44.3697 42.8091C44.6097 43.3691 45.0497 43.6491 45.6897 43.6491C46.4897 43.6491 47.2697 43.1291 48.0297 42.0891C48.7897 41.0091 49.6097 38.9891 50.4897 36.0291C50.6097 35.5891 50.8697 35.3691 51.2697 35.3691C51.5897 35.3691 51.7697 35.4891 51.8097 35.7291C51.8897 35.9691 51.8897 36.2491 51.8097 36.5691C51.0497 39.2891 50.2297 41.4291 49.3497 42.9891C48.4697 44.5091 47.5697 45.5691 46.6497 46.1691C45.7697 46.7691 44.8697 47.0691 43.9497 47.0691ZM59.2648 47.0691C57.7848 47.0691 56.7648 46.4091 56.2048 45.0891C55.6848 43.7291 55.7248 41.9491 56.3248 39.7491L61.0648 22.3491C61.3848 21.1891 61.4648 20.2891 61.3048 19.6491C61.1448 19.0091 60.7848 18.6891 60.2248 18.6891C59.3048 18.6891 58.3648 19.3891 57.4048 20.7891C56.4848 22.1891 55.6848 24.1291 55.0048 26.6091C54.8848 27.0491 54.6248 27.2691 54.2248 27.2691C53.6648 27.2691 53.4848 26.8691 53.6848 26.0691C54.6048 22.7091 55.8048 20.1291 57.2848 18.3291C58.8048 16.4891 60.4648 15.5691 62.2648 15.5691C63.7048 15.5691 64.6648 16.2291 65.1448 17.5491C65.6248 18.8691 65.5448 20.6691 64.9048 22.9491L60.1048 40.3491C59.3448 43.1091 59.6048 44.4891 60.8848 44.4891C61.6848 44.4891 62.6048 43.9491 63.6448 42.8691C64.6848 41.7891 65.7648 40.3091 66.8848 38.4291C68.0448 36.5491 69.1848 34.4091 70.3048 32.0091C71.4248 29.6091 72.4448 27.0891 73.3648 24.4491C74.2848 21.8091 75.0448 19.1891 75.6448 16.5891C75.7648 16.1491 76.0448 15.929 76.4848 15.929H78.8848C79.4448 15.929 79.6648 16.1891 79.5448 16.7091L73.9048 40.8291C73.4648 42.7091 73.8048 43.6491 74.9248 43.6491C76.6048 43.6491 78.3648 41.1091 80.2048 36.0291C80.3648 35.5091 80.6448 35.2491 81.0448 35.2491C81.2848 35.2491 81.4448 35.3491 81.5248 35.5491C81.6448 35.7491 81.6448 36.0091 81.5248 36.3291C80.4448 39.7291 79.1648 42.3691 77.6848 44.2491C76.2048 46.1291 74.6448 47.0691 73.0048 47.0691C70.1248 47.0691 69.1648 44.9691 70.1248 40.7691L71.6848 34.1091C71.7648 33.8291 71.7048 33.6691 71.5048 33.6291C71.3448 33.5891 71.2048 33.6891 71.0848 33.9291C68.7648 38.7291 66.6248 42.1291 64.6648 44.1291C62.7048 46.0891 60.9048 47.0691 59.2648 47.0691ZM88.1536 47.0691C86.7936 47.0691 85.7336 46.5291 84.9736 45.4491C84.2136 44.3691 84.0936 42.6291 84.6136 40.2291L89.5936 18.5091C89.7136 17.9091 89.4736 17.6091 88.8736 17.6091H86.5936C86.0336 17.6091 85.7536 17.3491 85.7536 16.8291C85.7536 16.5491 85.8536 16.3291 86.0536 16.1691C86.2536 16.009 86.4936 15.929 86.7736 15.929H88.9336C89.8536 15.929 90.3936 15.5091 90.5536 14.6691L91.9936 8.24905C92.1136 7.80905 92.3936 7.58905 92.8336 7.58905H95.2936C95.8536 7.58905 96.0736 7.84905 95.9536 8.36905L94.4536 15.0291C94.3336 15.6291 94.5736 15.929 95.1736 15.929H98.5936C99.2736 15.929 99.6136 16.1891 99.6136 16.7091C99.6136 17.3091 99.1936 17.6091 98.3536 17.6091H95.1136C94.2336 17.6091 93.6936 18.0291 93.4936 18.8691L88.4536 40.8291C88.2536 41.7091 88.2736 42.4091 88.5136 42.9291C88.7936 43.4091 89.2536 43.6491 89.8936 43.6491C90.8136 43.6491 91.6536 43.1291 92.4136 42.0891C93.2136 41.0491 94.0536 39.0691 94.9336 36.1491C95.0936 35.6291 95.3536 35.3691 95.7136 35.3691C95.9936 35.3691 96.1736 35.4891 96.2536 35.7291C96.3336 35.9691 96.2736 36.4091 96.0736 37.0491C95.3136 39.7691 94.4736 41.8491 93.5536 43.2891C92.6736 44.7291 91.7736 45.7291 90.8536 46.2891C89.9336 46.8091 89.0336 47.0691 88.1536 47.0691ZM103.701 47.0691C102.341 47.0691 101.281 46.5291 100.521 45.4491C99.7613 44.3691 99.6413 42.6291 100.161 40.2291L105.141 18.5091C105.261 17.9091 105.021 17.6091 104.421 17.6091H102.141C101.581 17.6091 101.301 17.3491 101.301 16.8291C101.301 16.5491 101.401 16.3291 101.601 16.1691C101.801 16.009 102.041 15.929 102.321 15.929H104.481C105.401 15.929 105.941 15.5091 106.101 14.6691L107.541 8.24905C107.661 7.80905 107.941 7.58905 108.381 7.58905H110.841C111.401 7.58905 111.621 7.84905 111.501 8.36905L110.001 15.0291C109.881 15.6291 110.121 15.929 110.721 15.929H114.141C114.821 15.929 115.161 16.1891 115.161 16.7091C115.161 17.3091 114.741 17.6091 113.901 17.6091H110.661C109.781 17.6091 109.241 18.0291 109.041 18.8691L104.001 40.8291C103.801 41.7091 103.821 42.4091 104.061 42.9291C104.341 43.4091 104.801 43.6491 105.441 43.6491C106.361 43.6491 107.201 43.1291 107.961 42.0891C108.761 41.0491 109.601 39.0691 110.481 36.1491C110.641 35.6291 110.901 35.3691 111.261 35.3691C111.541 35.3691 111.721 35.4891 111.801 35.7291C111.881 35.9691 111.821 36.4091 111.621 37.0491C110.861 39.7691 110.021 41.8491 109.101 43.2891C108.221 44.7291 107.321 45.7291 106.401 46.2891C105.481 46.8091 104.581 47.0691 103.701 47.0691ZM120.517 47.0691C118.397 47.0691 116.697 46.2491 115.417 44.6091C114.137 42.9291 113.497 40.5691 113.497 37.5291C113.497 34.8891 113.957 32.2691 114.877 29.6691C115.837 27.0691 117.077 24.7091 118.597 22.5891C120.117 20.4691 121.777 18.7691 123.577 17.4891C125.417 16.2091 127.197 15.5691 128.917 15.5691C130.797 15.5691 132.137 16.0291 132.937 16.9491C133.777 17.8291 134.197 19.0291 134.197 20.5491C134.197 22.3491 133.557 24.1491 132.277 25.9491C131.037 27.7091 129.277 29.2891 126.997 30.6891C124.757 32.0891 122.117 33.1291 119.077 33.8091C118.197 34.0091 117.737 34.5091 117.697 35.3091C117.657 35.5891 117.637 35.8891 117.637 36.2091C117.637 36.4891 117.637 36.7691 117.637 37.0491C117.637 39.3291 118.017 41.0491 118.777 42.2091C119.577 43.3691 120.657 43.9491 122.017 43.9491C123.537 43.9491 124.997 43.2491 126.397 41.8491C127.837 40.4491 129.037 38.4691 129.997 35.9091C130.117 35.5491 130.357 35.3691 130.717 35.3691C130.957 35.3691 131.097 35.4691 131.137 35.6691C131.217 35.8691 131.217 36.1091 131.137 36.3891C129.857 39.9091 128.297 42.5691 126.457 44.3691C124.657 46.1691 122.677 47.0691 120.517 47.0691ZM118.297 31.5291C118.217 31.8091 118.257 32.0491 118.417 32.2491C118.617 32.4091 118.857 32.4491 119.137 32.3691C121.617 31.6891 123.697 30.6691 125.377 29.3091C127.057 27.9091 128.317 26.3491 129.157 24.6291C130.037 22.9091 130.477 21.2291 130.477 19.5891C130.477 17.9091 129.817 17.0691 128.497 17.0691C127.337 17.0691 126.077 17.7491 124.717 19.1091C123.357 20.4691 122.097 22.2491 120.937 24.4491C119.777 26.6491 118.897 29.0091 118.297 31.5291ZM136.677 46.5291C136.117 46.5291 135.897 46.2691 136.017 45.7491L141.717 21.8091C141.917 20.9291 141.937 20.2491 141.777 19.7691C141.657 19.2491 141.297 18.9891 140.697 18.9891C139.977 18.9891 139.177 19.5291 138.297 20.6091C137.457 21.6491 136.497 23.6491 135.417 26.6091C135.257 27.1291 134.977 27.3891 134.577 27.3891C133.977 27.3891 133.817 27.0291 134.097 26.3091C134.977 23.5491 135.897 21.3891 136.857 19.8291C137.857 18.2691 138.857 17.1691 139.857 16.5291C140.857 15.8891 141.777 15.5691 142.617 15.5691C143.937 15.5691 144.877 16.0691 145.437 17.0691C145.997 18.0291 146.017 19.6291 145.497 21.8691L144.837 24.6891C144.797 24.9691 144.857 25.1291 145.017 25.1691C145.177 25.2091 145.317 25.1091 145.437 24.8691C146.957 21.3891 148.337 18.9691 149.577 17.6091C150.817 16.2491 152.237 15.5691 153.837 15.5691C154.917 15.5691 155.717 15.8691 156.237 16.469C156.797 17.0291 157.077 17.8091 157.077 18.8091C157.077 19.8091 156.837 20.6091 156.357 21.2091C155.877 21.8091 155.257 22.1091 154.497 22.1091C153.857 22.1091 153.397 21.9491 153.117 21.6291C152.837 21.3091 152.617 20.9491 152.457 20.5491C152.337 20.1091 152.197 19.7291 152.037 19.4091C151.877 19.0891 151.617 18.9291 151.257 18.9291C150.657 18.9291 149.877 19.6891 148.917 21.2091C147.957 22.7291 146.917 24.7891 145.797 27.3891C144.717 29.9491 143.657 32.8291 142.617 36.0291C141.617 39.2291 140.737 42.5091 139.977 45.8691C139.857 46.3091 139.577 46.5291 139.137 46.5291H136.677ZM166.367 10.2291C165.607 10.2291 164.967 9.96905 164.447 9.44905C163.967 8.88905 163.727 8.22905 163.727 7.46905C163.727 6.38905 164.047 5.52905 164.687 4.88905C165.367 4.24905 166.127 3.92905 166.967 3.92905C167.767 3.92905 168.427 4.18905 168.947 4.70905C169.507 5.18905 169.787 5.82905 169.787 6.62905C169.787 7.74905 169.447 8.62905 168.767 9.26905C168.087 9.90905 167.287 10.2291 166.367 10.2291ZM161.447 47.1291C160.127 47.1291 159.187 46.6491 158.627 45.6891C158.067 44.6891 158.047 43.0691 158.567 40.8291L163.007 21.8091C163.207 20.9291 163.227 20.2491 163.067 19.7691C162.947 19.2491 162.587 18.9891 161.987 18.9891C161.267 18.9891 160.467 19.5291 159.587 20.6091C158.747 21.6491 157.787 23.6491 156.707 26.6091C156.547 27.1291 156.267 27.3891 155.867 27.3891C155.267 27.3891 155.107 27.0291 155.387 26.3091C156.267 23.5491 157.187 21.3891 158.147 19.8291C159.147 18.2691 160.147 17.1691 161.147 16.5291C162.147 15.8891 163.067 15.5691 163.907 15.5691C165.307 15.5691 166.287 16.0691 166.847 17.0691C167.407 18.0291 167.427 19.6291 166.907 21.8691L162.467 40.8891C162.267 41.7691 162.227 42.4691 162.347 42.9891C162.507 43.4691 162.887 43.7091 163.487 43.7091C164.207 43.7091 164.987 43.1891 165.827 42.1491C166.707 41.0691 167.687 39.0491 168.767 36.0891C168.927 35.5691 169.207 35.3091 169.607 35.3091C170.207 35.3091 170.367 35.6691 170.087 36.3891C169.247 39.1091 168.307 41.2691 167.267 42.8691C166.267 44.4291 165.267 45.5291 164.267 46.1691C163.267 46.8091 162.327 47.1291 161.447 47.1291ZM173.792 45.7491L179.492 21.8091C179.692 20.9291 179.712 20.2491 179.552 19.7691C179.432 19.2491 179.072 18.9891 178.472 18.9891C177.752 18.9891 176.952 19.5291 176.072 20.6091C175.232 21.6491 174.272 23.6491 173.192 26.6091C173.032 27.1291 172.752 27.3891 172.352 27.3891C171.752 27.3891 171.592 27.0291 171.872 26.3091C172.752 23.5491 173.672 21.3891 174.632 19.8291C175.632 18.2691 176.632 17.1691 177.632 16.5291C178.632 15.8891 179.552 15.5691 180.392 15.5691C181.712 15.5691 182.652 16.0691 183.212 17.0691C183.772 18.0291 183.792 19.6291 183.272 21.8691L181.772 28.3491C181.732 28.6291 181.792 28.7891 181.952 28.8291C182.112 28.8691 182.252 28.7691 182.372 28.5291C183.932 25.2891 185.432 22.7291 186.872 20.8491C188.312 18.9291 189.672 17.5691 190.952 16.7691C192.232 15.9691 193.392 15.5691 194.432 15.5691C195.912 15.5691 196.992 16.1691 197.672 17.3691C198.352 18.5691 198.352 20.4091 197.672 22.8891L193.112 40.2891C192.832 41.4091 192.812 42.2491 193.052 42.8091C193.292 43.3691 193.732 43.6491 194.372 43.6491C195.172 43.6491 195.952 43.1291 196.712 42.0891C197.512 41.0091 198.332 38.9891 199.172 36.0291C199.292 35.5891 199.552 35.3691 199.952 35.3691C200.272 35.3691 200.452 35.4891 200.492 35.7291C200.572 35.9691 200.572 36.2491 200.492 36.5691C199.732 39.2891 198.912 41.4291 198.032 42.9891C197.152 44.5091 196.252 45.5691 195.332 46.1691C194.452 46.7691 193.552 47.0691 192.632 47.0691C191.192 47.0691 190.112 46.4691 189.392 45.2691C188.672 44.0691 188.632 42.2091 189.272 39.6891L193.892 22.2891C194.332 20.7291 194.392 19.6491 194.072 19.0491C193.792 18.4491 193.372 18.1491 192.812 18.1491C191.932 18.1491 190.932 18.7091 189.812 19.8291C188.692 20.9091 187.552 22.4091 186.392 24.3291C185.232 26.2091 184.092 28.3491 182.972 30.7491C181.852 33.1491 180.832 35.6491 179.912 38.2491C179.032 40.8491 178.312 43.3891 177.752 45.8691C177.632 46.3091 177.352 46.5291 176.912 46.5291H174.452C173.892 46.5291 173.672 46.2691 173.792 45.7491ZM205.86 59.4891C202.7 59.4891 200.3 58.9091 198.66 57.7491C197.02 56.5891 196.2 55.2091 196.2 53.6091C196.2 52.2091 196.76 50.8291 197.88 49.4691C198.96 48.1491 200.98 46.6291 203.94 44.9091C204.38 44.6691 204.62 44.4091 204.66 44.1291C204.74 43.8091 204.56 43.5091 204.12 43.2291C203 42.5091 202.32 41.6691 202.08 40.7091C201.88 39.7491 202.14 39.0691 202.86 38.6691L207.42 36.0291C207.82 35.8291 208.02 35.5891 208.02 35.3091C208.06 34.9891 207.86 34.7091 207.42 34.4691C206.34 33.8291 205.52 32.9291 204.96 31.7691C204.44 30.5691 204.18 29.2691 204.18 27.8691C204.18 25.7091 204.7 23.7091 205.74 21.8691C206.82 19.9891 208.24 18.4691 210 17.3091C211.8 16.1491 213.8 15.5691 216 15.5691C216.92 15.5691 217.7 15.6891 218.34 15.929C218.82 16.0891 219.18 15.9291 219.42 15.4491C220.1 13.9691 220.96 12.8091 222 11.9691C223.08 11.0891 224.2 10.649 225.36 10.649C226.2 10.649 226.84 10.8691 227.28 11.3091C227.76 11.7491 228 12.3491 228 13.1091C228 13.8691 227.78 14.4891 227.34 14.9691C226.9 15.4491 226.34 15.6891 225.66 15.6891C225.14 15.6891 224.74 15.5891 224.46 15.389C224.22 15.189 224 14.989 223.8 14.7891C223.6 14.5891 223.28 14.4891 222.84 14.4891C221.96 14.4891 221.26 14.9891 220.74 15.9891C220.58 16.3491 220.54 16.6891 220.62 17.0091C220.7 17.2891 220.86 17.5891 221.1 17.9091C222.14 19.2691 222.66 20.9891 222.66 23.0691C222.66 24.9491 222.24 26.7491 221.4 28.4691C220.6 30.1491 219.48 31.5891 218.04 32.7891C216.64 33.9491 215.02 34.7291 213.18 35.1291C212.46 35.2891 211.8 35.4891 211.2 35.7291C210.64 35.9291 209.92 36.3091 209.04 36.8691L206.64 38.3091C206.04 38.6691 205.88 39.1291 206.16 39.6891C206.44 40.2091 207.22 40.7091 208.5 41.1891L213.66 43.1091C215.9 43.9091 217.44 44.8891 218.28 46.0491C219.16 47.2091 219.6 48.5691 219.6 50.1291C219.6 52.0491 218.96 53.7091 217.68 55.1091C216.44 56.5091 214.78 57.5891 212.7 58.3491C210.62 59.1091 208.34 59.4891 205.86 59.4891ZM208.2 28.9491C208.2 30.7891 208.46 32.1291 208.98 32.9691C209.54 33.7691 210.32 34.1691 211.32 34.1691C212.6 34.1691 213.78 33.5891 214.86 32.4291C215.98 31.2291 216.88 29.7091 217.56 27.8691C218.24 25.9891 218.58 24.0491 218.58 22.0491C218.58 20.0491 218.32 18.6891 217.8 17.9691C217.28 17.2091 216.5 16.8291 215.46 16.8291C214.22 16.8291 213.04 17.4291 211.92 18.6291C210.8 19.7891 209.9 21.2891 209.22 23.1291C208.54 24.9691 208.2 26.9091 208.2 28.9491ZM206.52 57.9891C208.08 57.9891 209.54 57.7291 210.9 57.2091C212.26 56.6891 213.36 55.9491 214.2 54.9891C215.08 54.0291 215.52 52.8891 215.52 51.5691C215.52 50.2491 215.18 49.1491 214.5 48.2691C213.86 47.4291 212.58 46.6491 210.66 45.9291L209.52 45.5091C208.8 45.2291 208.08 45.1291 207.36 45.2091C206.64 45.2891 205.96 45.4891 205.32 45.8091C203.16 47.0091 201.7 48.1291 200.94 49.1691C200.18 50.2091 199.8 51.3491 199.8 52.5891C199.8 54.0691 200.34 55.3291 201.42 56.3691C202.5 57.4491 204.2 57.9891 206.52 57.9891ZM227.283 47.0691C226.443 47.0691 225.763 46.8091 225.243 46.2891C224.723 45.7291 224.463 45.0491 224.463 44.2491C224.463 43.2091 224.823 42.3691 225.542 41.7291C226.263 41.0891 227.023 40.7691 227.823 40.7691C228.623 40.7691 229.283 41.0491 229.803 41.6091C230.363 42.1291 230.643 42.7891 230.643 43.5891C230.643 44.6291 230.283 45.4691 229.563 46.1091C228.843 46.7491 228.083 47.0691 227.283 47.0691Z" fill="white"/>
<path d="M117.166 37.5748C116.774 37.5748 116.456 37.4534 116.214 37.2108C115.971 36.9494 115.85 36.6321 115.85 36.2588C115.85 35.7734 116.018 35.3814 116.354 35.0828C116.69 34.7841 117.044 34.6348 117.418 34.6348C117.791 34.6348 118.099 34.7654 118.342 35.0268C118.603 35.2694 118.734 35.5774 118.734 35.9508C118.734 36.4361 118.566 36.8281 118.23 37.1268C117.894 37.4254 117.539 37.5748 117.166 37.5748Z" fill="white"/>
</svg>
