<svg width="720" height="213" viewBox="0 0 720 213" fill="none" xmlns="http://www.w3.org/2000/svg">
<g filter="url(#filter0_d_46_24)">
<path d="M50.6 145.36C47.24 145.36 43.64 145 39.8 144.28C36.08 143.56 32.54 142.6 29.18 141.4C25.94 140.08 23.36 138.58 21.44 136.9C20.84 136.3 20.42 135.7 20.18 135.1C20.06 134.5 20.12 133.6 20.36 132.4L25.4 104.14C25.76 101.98 26.72 100.9 28.28 100.9C29.72 100.9 30.44 102.1 30.44 104.5L30.62 111.52C30.86 121.6 32.6 128.86 35.84 133.3C39.08 137.74 44.36 139.96 51.68 139.96C58.4 139.96 63.98 137.56 68.42 132.76C72.86 127.84 75.08 121.3 75.08 113.14C75.08 107.86 73.64 102.34 70.76 96.58C67.88 90.82 63.86 85.06 58.7 79.3C52.58 72.46 48.02 66.22 45.02 60.58C42.14 54.94 40.7 49 40.7 42.76C40.7 37.84 41.9 33.1 44.3 28.54C46.7 23.86 50.3 20.02 55.1 17.02C60.02 13.9 66.26 12.34 73.82 12.34C84.26 12.34 92.24 14.68 97.76 19.36C99.44 20.68 100.04 22.66 99.56 25.3L94.52 51.58C94.16 53.38 93.32 54.28 92 54.28C90.68 54.28 89.9 53.26 89.66 51.22L89.48 47.44C89 37.72 87.62 30.34 85.34 25.3C83.18 20.14 78.8 17.56 72.2 17.56C67.4 17.56 63.56 18.64 60.68 20.8C57.8 22.96 55.7 25.66 54.38 28.9C53.06 32.02 52.4 35.14 52.4 38.26C52.4 41.74 52.88 45.1 53.84 48.34C54.8 51.46 56.42 54.82 58.7 58.42C61.1 61.9 64.34 66.16 68.42 71.2C74.18 78.04 78.68 84.58 81.92 90.82C85.16 97.06 86.78 103.12 86.78 109C86.78 116.08 85.16 122.38 81.92 127.9C78.8 133.3 74.54 137.56 69.14 140.68C63.74 143.8 57.56 145.36 50.6 145.36ZM150.109 145.36C145.789 145.36 142.549 143.56 140.389 139.96C138.229 136.36 138.109 130.78 140.029 123.22L153.889 71.02C155.209 66.34 155.389 63.1 154.429 61.3C153.589 59.5 152.329 58.6 150.649 58.6C148.009 58.6 145.009 60.28 141.649 63.64C138.409 66.88 134.989 71.38 131.389 77.14C127.909 82.78 124.489 89.2 121.129 96.4C117.889 103.48 114.889 110.98 112.129 118.9C109.369 126.7 107.149 134.32 105.469 141.76C105.109 143.08 104.269 143.74 102.949 143.74H95.389C93.709 143.74 93.049 142.96 93.409 141.4L119.689 28.54C120.289 26.38 120.289 24.88 119.689 24.04C119.209 23.2 118.129 22.72 116.449 22.6L111.049 22.06C109.249 21.94 108.469 21.16 108.709 19.72C108.949 18.64 109.789 17.98 111.229 17.74C115.549 17.02 119.389 16.18 122.749 15.22C126.109 14.14 128.809 12.76 130.849 11.08C131.809 10.36 132.709 9.99998 133.549 9.99998C134.989 9.99998 135.529 10.9 135.169 12.7L117.529 89.2C117.409 90.04 117.589 90.52 118.069 90.64C118.549 90.76 118.969 90.46 119.329 89.74C124.129 79.9 128.689 72.16 133.009 66.52C137.329 60.88 141.349 56.86 145.069 54.46C148.909 52.06 152.389 50.86 155.509 50.86C159.949 50.86 163.189 52.66 165.229 56.26C167.269 59.86 167.269 65.38 165.229 72.82L151.549 125.02C150.709 128.38 150.649 130.9 151.369 132.58C152.089 134.26 153.409 135.1 155.329 135.1C157.729 135.1 160.069 133.54 162.349 130.42C164.629 127.18 167.089 121.12 169.729 112.24C170.089 110.92 170.869 110.26 172.069 110.26C173.029 110.26 173.569 110.62 173.689 111.34C173.929 112.06 173.929 112.9 173.689 113.86C171.409 122.02 168.949 128.44 166.309 133.12C163.669 137.68 160.969 140.86 158.209 142.66C155.569 144.46 152.869 145.36 150.109 145.36ZM194.854 145.36C190.414 145.36 187.354 143.38 185.674 139.42C184.114 135.34 184.234 130 186.034 123.4L200.254 71.2C201.214 67.72 201.454 65.02 200.974 63.1C200.494 61.18 199.414 60.22 197.734 60.22C194.974 60.22 192.154 62.32 189.274 66.52C186.514 70.72 184.114 76.54 182.074 83.98C181.714 85.3 180.934 85.96 179.734 85.96C178.054 85.96 177.514 84.76 178.114 82.36C180.874 72.28 184.474 64.54 188.914 59.14C193.474 53.62 198.454 50.86 203.854 50.86C208.174 50.86 211.054 52.84 212.494 56.8C213.934 60.76 213.694 66.16 211.774 73L197.374 125.2C195.094 133.48 195.874 137.62 199.714 137.62C202.114 137.62 204.874 136 207.994 132.76C211.114 129.52 214.354 125.08 217.714 119.44C221.194 113.8 224.615 107.38 227.974 100.18C231.334 92.98 234.394 85.42 237.154 77.5C239.914 69.58 242.194 61.72 243.994 53.92C244.354 52.6 245.194 51.94 246.514 51.94H253.715C255.395 51.94 256.054 52.72 255.694 54.28L238.775 126.64C237.454 132.28 238.474 135.1 241.834 135.1C246.874 135.1 252.154 127.48 257.674 112.24C258.154 110.68 258.994 109.9 260.194 109.9C260.914 109.9 261.395 110.2 261.635 110.8C261.994 111.4 261.994 112.18 261.635 113.14C258.394 123.34 254.554 131.26 250.114 136.9C245.674 142.54 240.994 145.36 236.074 145.36C227.434 145.36 224.554 139.06 227.434 126.46L232.115 106.48C232.354 105.64 232.174 105.16 231.574 105.04C231.094 104.92 230.674 105.22 230.314 105.94C223.354 120.34 216.934 130.54 211.054 136.54C205.174 142.42 199.774 145.36 194.854 145.36ZM280.321 145.36C276.241 145.36 273.061 143.74 270.781 140.5C268.501 137.26 268.141 132.04 269.701 124.84L284.641 59.68C285.001 57.88 284.281 56.98 282.481 56.98H275.641C273.961 56.98 273.121 56.2 273.121 54.64C273.121 53.8 273.421 53.14 274.021 52.66C274.621 52.18 275.341 51.94 276.181 51.94H282.661C285.421 51.94 287.041 50.68 287.521 48.16L291.841 28.9C292.201 27.58 293.041 26.92 294.361 26.92H301.741C303.421 26.92 304.081 27.7 303.721 29.26L299.221 49.24C298.861 51.04 299.581 51.94 301.381 51.94H311.641C313.681 51.94 314.701 52.72 314.701 54.28C314.701 56.08 313.441 56.98 310.921 56.98H301.201C298.561 56.98 296.941 58.24 296.341 60.76L281.221 126.64C280.621 129.28 280.681 131.38 281.401 132.94C282.241 134.38 283.621 135.1 285.541 135.1C288.301 135.1 290.821 133.54 293.101 130.42C295.501 127.3 298.021 121.36 300.661 112.6C301.141 111.04 301.921 110.26 303.001 110.26C303.841 110.26 304.381 110.62 304.621 111.34C304.861 112.06 304.681 113.38 304.081 115.3C301.801 123.46 299.281 129.7 296.521 134.02C293.881 138.34 291.181 141.34 288.421 143.02C285.661 144.58 282.961 145.36 280.321 145.36ZM325.764 145.36C321.684 145.36 318.504 143.74 316.224 140.5C313.944 137.26 313.584 132.04 315.144 124.84L330.084 59.68C330.444 57.88 329.724 56.98 327.924 56.98H321.084C319.404 56.98 318.564 56.2 318.564 54.64C318.564 53.8 318.864 53.14 319.464 52.66C320.064 52.18 320.784 51.94 321.624 51.94H328.104C330.864 51.94 332.484 50.68 332.964 48.16L337.284 28.9C337.644 27.58 338.484 26.92 339.804 26.92H347.184C348.864 26.92 349.524 27.7 349.164 29.26L344.664 49.24C344.304 51.04 345.024 51.94 346.824 51.94H357.084C359.124 51.94 360.144 52.72 360.144 54.28C360.144 56.08 358.884 56.98 356.364 56.98H346.644C344.004 56.98 342.384 58.24 341.784 60.76L326.664 126.64C326.064 129.28 326.124 131.38 326.844 132.94C327.684 134.38 329.064 135.1 330.984 135.1C333.744 135.1 336.264 133.54 338.544 130.42C340.944 127.3 343.464 121.36 346.104 112.6C346.584 111.04 347.364 110.26 348.444 110.26C349.284 110.26 349.824 110.62 350.064 111.34C350.304 112.06 350.124 113.38 349.524 115.3C347.244 123.46 344.724 129.7 341.964 134.02C339.324 138.34 336.624 141.34 333.864 143.02C331.104 144.58 328.404 145.36 325.764 145.36ZM375.012 145.36C368.652 145.36 363.552 142.9 359.712 137.98C355.872 132.94 353.952 125.86 353.952 116.74C353.952 108.82 355.332 100.96 358.092 93.16C360.972 85.36 364.692 78.28 369.252 71.92C373.812 65.56 378.792 60.46 384.192 56.62C389.712 52.78 395.052 50.86 400.212 50.86C405.852 50.86 409.872 52.24 412.272 55C414.792 57.64 416.052 61.24 416.052 65.8C416.052 71.2 414.132 76.6 410.292 82C406.572 87.28 401.292 92.02 394.452 96.22C387.732 100.42 379.812 103.54 370.692 105.58C368.052 106.18 366.672 107.68 366.552 110.08C366.432 110.92 366.372 111.82 366.372 112.78C366.372 113.62 366.372 114.46 366.372 115.3C366.372 122.14 367.512 127.3 369.792 130.78C372.192 134.26 375.432 136 379.512 136C384.072 136 388.452 133.9 392.652 129.7C396.972 125.5 400.572 119.56 403.452 111.88C403.812 110.8 404.532 110.26 405.612 110.26C406.332 110.26 406.752 110.56 406.872 111.16C407.112 111.76 407.112 112.48 406.872 113.32C403.032 123.88 398.352 131.86 392.832 137.26C387.432 142.66 381.492 145.36 375.012 145.36ZM368.352 98.74C368.112 99.58 368.232 100.3 368.712 100.9C369.312 101.38 370.032 101.5 370.872 101.26C378.312 99.22 384.552 96.16 389.592 92.08C394.632 87.88 398.412 83.2 400.932 78.04C403.572 72.88 404.892 67.84 404.892 62.92C404.892 57.88 402.912 55.36 398.952 55.36C395.472 55.36 391.692 57.4 387.612 61.48C383.532 65.56 379.752 70.9 376.272 77.5C372.792 84.1 370.152 91.18 368.352 98.74ZM422.29 143.74C420.61 143.74 419.95 142.96 420.31 141.4L437.41 69.58C438.01 66.94 438.07 64.9 437.59 63.46C437.23 61.9 436.15 61.12 434.35 61.12C432.19 61.12 429.79 62.74 427.15 65.98C424.63 69.1 421.75 75.1 418.51 83.98C418.03 85.54 417.19 86.32 415.99 86.32C414.19 86.32 413.71 85.24 414.55 83.08C417.19 74.8 419.95 68.32 422.83 63.64C425.83 58.96 428.83 55.66 431.83 53.74C434.83 51.82 437.59 50.86 440.11 50.86C444.07 50.86 446.89 52.36 448.57 55.36C450.25 58.24 450.31 63.04 448.75 69.76L446.77 78.22C446.65 79.06 446.83 79.54 447.31 79.66C447.79 79.78 448.21 79.48 448.57 78.76C453.13 68.32 457.27 61.06 460.99 56.98C464.71 52.9 468.97 50.86 473.77 50.86C477.01 50.86 479.41 51.76 480.97 53.56C482.65 55.24 483.49 57.58 483.49 60.58C483.49 63.58 482.77 65.98 481.33 67.78C479.89 69.58 478.03 70.48 475.75 70.48C473.83 70.48 472.45 70 471.61 69.04C470.77 68.08 470.11 67 469.63 65.8C469.27 64.48 468.85 63.34 468.37 62.38C467.89 61.42 467.11 60.94 466.03 60.94C464.23 60.94 461.89 63.22 459.01 67.78C456.13 72.34 453.01 78.52 449.65 86.32C446.41 94 443.23 102.64 440.11 112.24C437.11 121.84 434.47 131.68 432.19 141.76C431.83 143.08 430.99 143.74 429.67 143.74H422.29ZM510.16 34.84C507.88 34.84 505.96 34.06 504.4 32.5C502.96 30.82 502.24 28.84 502.24 26.56C502.24 23.32 503.2 20.74 505.12 18.82C507.16 16.9 509.44 15.94 511.96 15.94C514.36 15.94 516.34 16.72 517.9 18.28C519.58 19.72 520.42 21.64 520.42 24.04C520.42 27.4 519.4 30.04 517.36 31.96C515.32 33.88 512.92 34.84 510.16 34.84ZM495.4 145.54C491.44 145.54 488.62 144.1 486.94 141.22C485.26 138.22 485.2 133.36 486.76 126.64L500.08 69.58C500.68 66.94 500.74 64.9 500.26 63.46C499.9 61.9 498.82 61.12 497.02 61.12C494.86 61.12 492.46 62.74 489.82 65.98C487.3 69.1 484.42 75.1 481.18 83.98C480.7 85.54 479.86 86.32 478.66 86.32C476.86 86.32 476.38 85.24 477.22 83.08C479.86 74.8 482.62 68.32 485.5 63.64C488.5 58.96 491.5 55.66 494.5 53.74C497.5 51.82 500.26 50.86 502.78 50.86C506.98 50.86 509.92 52.36 511.6 55.36C513.28 58.24 513.34 63.04 511.78 69.76L498.46 126.82C497.86 129.46 497.74 131.56 498.1 133.12C498.58 134.56 499.72 135.28 501.52 135.28C503.68 135.28 506.02 133.72 508.54 130.6C511.18 127.36 514.12 121.3 517.36 112.42C517.84 110.86 518.68 110.08 519.88 110.08C521.68 110.08 522.16 111.16 521.32 113.32C518.8 121.48 515.98 127.96 512.86 132.76C509.86 137.44 506.86 140.74 503.86 142.66C500.86 144.58 498.04 145.54 495.4 145.54ZM531.235 141.4L548.335 69.58C548.935 66.94 548.995 64.9 548.515 63.46C548.155 61.9 547.075 61.12 545.275 61.12C543.115 61.12 540.715 62.74 538.075 65.98C535.555 69.1 532.675 75.1 529.435 83.98C528.955 85.54 528.115 86.32 526.915 86.32C525.115 86.32 524.635 85.24 525.475 83.08C528.115 74.8 530.875 68.32 533.755 63.64C536.755 58.96 539.755 55.66 542.755 53.74C545.755 51.82 548.515 50.86 551.035 50.86C554.995 50.86 557.815 52.36 559.495 55.36C561.175 58.24 561.235 63.04 559.675 69.76L555.175 89.2C555.055 90.04 555.235 90.52 555.715 90.64C556.195 90.76 556.615 90.46 556.975 89.74C561.655 80.02 566.155 72.34 570.475 66.7C574.795 60.94 578.875 56.86 582.715 54.46C586.555 52.06 590.035 50.86 593.155 50.86C597.595 50.86 600.835 52.66 602.875 56.26C604.915 59.86 604.915 65.38 602.875 72.82L589.195 125.02C588.355 128.38 588.295 130.9 589.015 132.58C589.735 134.26 591.055 135.1 592.975 135.1C595.375 135.1 597.715 133.54 599.995 130.42C602.395 127.18 604.855 121.12 607.375 112.24C607.735 110.92 608.515 110.26 609.715 110.26C610.675 110.26 611.215 110.62 611.335 111.34C611.575 112.06 611.575 112.9 611.335 113.86C609.055 122.02 606.595 128.44 603.955 133.12C601.315 137.68 598.615 140.86 595.855 142.66C593.215 144.46 590.515 145.36 587.755 145.36C583.435 145.36 580.195 143.56 578.035 139.96C575.875 136.36 575.755 130.78 577.675 123.22L591.535 71.02C592.855 66.34 593.035 63.1 592.075 61.3C591.235 59.5 589.975 58.6 588.295 58.6C585.655 58.6 582.655 60.28 579.295 63.64C575.935 66.88 572.515 71.38 569.035 77.14C565.555 82.78 562.135 89.2 558.775 96.4C555.415 103.6 552.355 111.1 549.595 118.9C546.955 126.7 544.795 134.32 543.115 141.76C542.755 143.08 541.915 143.74 540.595 143.74H533.215C531.535 143.74 530.875 142.96 531.235 141.4ZM626.241 182.62C616.761 182.62 609.561 180.88 604.641 177.4C599.721 173.92 597.261 169.78 597.261 164.98C597.261 160.78 598.941 156.64 602.301 152.56C605.541 148.6 611.601 144.04 620.481 138.88C621.801 138.16 622.521 137.38 622.641 136.54C622.881 135.58 622.341 134.68 621.021 133.84C617.661 131.68 615.621 129.16 614.901 126.28C614.301 123.4 615.081 121.36 617.241 120.16L630.921 112.24C632.121 111.64 632.721 110.92 632.721 110.08C632.841 109.12 632.241 108.28 630.921 107.56C627.681 105.64 625.221 102.94 623.541 99.46C621.981 95.86 621.201 91.96 621.201 87.76C621.201 81.28 622.761 75.28 625.881 69.76C629.121 64.12 633.381 59.56 638.661 56.08C644.061 52.6 650.061 50.86 656.661 50.86C659.421 50.86 661.761 51.22 663.681 51.94C665.121 52.42 666.201 51.94 666.921 50.5C668.961 46.06 671.541 42.58 674.661 40.06C677.901 37.42 681.261 36.1 684.741 36.1C687.261 36.1 689.181 36.76 690.501 38.08C691.941 39.4 692.661 41.2 692.661 43.48C692.661 45.76 692.001 47.62 690.681 49.06C689.361 50.5 687.681 51.22 685.641 51.22C684.081 51.22 682.881 50.92 682.041 50.32C681.321 49.72 680.661 49.12 680.061 48.52C679.461 47.92 678.501 47.62 677.181 47.62C674.541 47.62 672.441 49.12 670.881 52.12C670.401 53.2 670.281 54.22 670.521 55.18C670.761 56.02 671.241 56.92 671.961 57.88C675.081 61.96 676.641 67.12 676.641 73.36C676.641 79 675.381 84.4 672.861 89.56C670.461 94.6 667.101 98.92 662.781 102.52C658.581 106 653.721 108.34 648.201 109.54C646.041 110.02 644.061 110.62 642.261 111.34C640.581 111.94 638.421 113.08 635.781 114.76L628.581 119.08C626.781 120.16 626.301 121.54 627.141 123.22C627.981 124.78 630.321 126.28 634.161 127.72L649.641 133.48C656.361 135.88 660.981 138.82 663.501 142.3C666.141 145.78 667.461 149.86 667.461 154.54C667.461 160.3 665.541 165.28 661.701 169.48C657.981 173.68 653.001 176.92 646.761 179.2C640.521 181.48 633.681 182.62 626.241 182.62ZM633.261 91C633.261 96.52 634.041 100.54 635.601 103.06C637.281 105.46 639.621 106.66 642.621 106.66C646.461 106.66 650.001 104.92 653.241 101.44C656.601 97.84 659.301 93.28 661.341 87.76C663.381 82.12 664.401 76.3 664.401 70.3C664.401 64.3 663.621 60.22 662.061 58.06C660.501 55.78 658.161 54.64 655.041 54.64C651.321 54.64 647.781 56.44 644.421 60.04C641.061 63.52 638.361 68.02 636.321 73.54C634.281 79.06 633.261 84.88 633.261 91ZM628.221 178.12C632.901 178.12 637.281 177.34 641.361 175.78C645.441 174.22 648.741 172 651.261 169.12C653.901 166.24 655.221 162.82 655.221 158.86C655.221 154.9 654.201 151.6 652.161 148.96C650.241 146.44 646.401 144.1 640.641 141.94L637.221 140.68C635.061 139.84 632.901 139.54 630.741 139.78C628.581 140.02 626.541 140.62 624.621 141.58C618.141 145.18 613.761 148.54 611.481 151.66C609.201 154.78 608.061 158.2 608.061 161.92C608.061 166.36 609.681 170.14 612.921 173.26C616.161 176.5 621.261 178.12 628.221 178.12ZM689.307 145.36C686.787 145.36 684.747 144.58 683.187 143.02C681.627 141.34 680.847 139.3 680.847 136.9C680.847 133.78 681.927 131.26 684.087 129.34C686.247 127.42 688.527 126.46 690.927 126.46C693.327 126.46 695.307 127.3 696.867 128.98C698.547 130.54 699.387 132.52 699.387 134.92C699.387 138.04 698.307 140.56 696.147 142.48C693.987 144.4 691.707 145.36 689.307 145.36Z" fill="white"/>
</g>
<defs>
<filter id="filter0_d_46_24" x="0" y="0" width="719.387" height="212.62" filterUnits="userSpaceOnUse" color-interpolation-filters="sRGB">
<feFlood flood-opacity="0" result="BackgroundImageFix"/>
<feColorMatrix in="SourceAlpha" type="matrix" values="0 0 0 0 0 0 0 0 0 0 0 0 0 0 0 0 0 0 127 0" result="hardAlpha"/>
<feOffset dy="10"/>
<feGaussianBlur stdDeviation="10"/>
<feComposite in2="hardAlpha" operator="out"/>
<feColorMatrix type="matrix" values="0 0 0 0 0 0 0 0 0 0 0 0 0 0 0 0 0 0 0.25 0"/>
<feBlend mode="difference" in2="BackgroundImageFix" result="effect1_dropShadow_46_24"/>
<feBlend mode="normal" in="SourceGraphic" in2="effect1_dropShadow_46_24" result="shape"/>
</filter>
</defs>
</svg>
